<mxfile host="app.diagrams.net" modified="2023-12-21T09:12:40.094Z" agent="Mozilla/5.0 (Macintosh; Intel Mac OS X 10_15_7) AppleWebKit/537.36 (KHTML, like Gecko) Chrome/117.0.0.0 Safari/537.36" etag="PNLYa6nIUboIWLaPIPrU" version="22.1.11" type="google">
  <diagram name="Page-1" id="3tj_-0WCuf3-UZmH2dFG">
    <mxGraphModel dx="953" dy="585" grid="1" gridSize="10" guides="1" tooltips="1" connect="1" arrows="1" fold="1" page="1" pageScale="1" pageWidth="850" pageHeight="1100" math="0" shadow="0">
      <root>
        <mxCell id="0" />
        <mxCell id="1" parent="0" />
        <mxCell id="xN_VHVvE-c8_-unxGixW-1" value="sample image" style="whiteSpace=wrap;html=1;shape=mxgraph.basic.document" vertex="1" parent="1">
          <mxGeometry x="375" y="43" width="100" height="100" as="geometry" />
        </mxCell>
        <mxCell id="xN_VHVvE-c8_-unxGixW-2" value="&lt;br&gt;gemini-pro-vision" style="html=1;whiteSpace=wrap;shape=isoCube2;backgroundOutline=1;isoAngle=15;" vertex="1" parent="1">
          <mxGeometry x="376" y="233" width="100" height="110" as="geometry" />
        </mxCell>
        <mxCell id="xN_VHVvE-c8_-unxGixW-4" value="" style="endArrow=classic;html=1;rounded=0;" edge="1" parent="1">
          <mxGeometry relative="1" as="geometry">
            <mxPoint x="426" y="154" as="sourcePoint" />
            <mxPoint x="426" y="224" as="targetPoint" />
          </mxGeometry>
        </mxCell>
        <mxCell id="xN_VHVvE-c8_-unxGixW-5" value="get image" style="edgeLabel;resizable=0;html=1;align=center;verticalAlign=middle;" connectable="0" vertex="1" parent="xN_VHVvE-c8_-unxGixW-4">
          <mxGeometry relative="1" as="geometry" />
        </mxCell>
        <mxCell id="xN_VHVvE-c8_-unxGixW-6" value="Canvas, Chart.js" style="rounded=1;whiteSpace=wrap;html=1;shadow=0;" vertex="1" parent="1">
          <mxGeometry x="365" y="607" width="120" height="100" as="geometry" />
        </mxCell>
        <mxCell id="xN_VHVvE-c8_-unxGixW-7" value="" style="endArrow=classic;html=1;rounded=0;" edge="1" parent="1">
          <mxGeometry relative="1" as="geometry">
            <mxPoint x="427" y="351" as="sourcePoint" />
            <mxPoint x="427" y="411" as="targetPoint" />
          </mxGeometry>
        </mxCell>
        <mxCell id="xN_VHVvE-c8_-unxGixW-8" value="processing" style="edgeLabel;resizable=0;html=1;align=center;verticalAlign=middle;" connectable="0" vertex="1" parent="xN_VHVvE-c8_-unxGixW-7">
          <mxGeometry relative="1" as="geometry" />
        </mxCell>
        <mxCell id="xN_VHVvE-c8_-unxGixW-10" value="nutritionFacts data" style="whiteSpace=wrap;html=1;shape=mxgraph.basic.document" vertex="1" parent="1">
          <mxGeometry x="375" y="420" width="100" height="100" as="geometry" />
        </mxCell>
        <mxCell id="xN_VHVvE-c8_-unxGixW-13" value="" style="endArrow=classic;html=1;rounded=0;" edge="1" parent="1">
          <mxGeometry relative="1" as="geometry">
            <mxPoint x="426" y="528" as="sourcePoint" />
            <mxPoint x="426" y="598" as="targetPoint" />
          </mxGeometry>
        </mxCell>
        <mxCell id="xN_VHVvE-c8_-unxGixW-14" value="get data" style="edgeLabel;resizable=0;html=1;align=center;verticalAlign=middle;" connectable="0" vertex="1" parent="xN_VHVvE-c8_-unxGixW-13">
          <mxGeometry relative="1" as="geometry" />
        </mxCell>
        <mxCell id="xN_VHVvE-c8_-unxGixW-15" value="" style="endArrow=classic;html=1;rounded=0;" edge="1" parent="1">
          <mxGeometry relative="1" as="geometry">
            <mxPoint x="427" y="719" as="sourcePoint" />
            <mxPoint x="427" y="779" as="targetPoint" />
          </mxGeometry>
        </mxCell>
        <mxCell id="xN_VHVvE-c8_-unxGixW-16" value="processing" style="edgeLabel;resizable=0;html=1;align=center;verticalAlign=middle;" connectable="0" vertex="1" parent="xN_VHVvE-c8_-unxGixW-15">
          <mxGeometry relative="1" as="geometry" />
        </mxCell>
        <mxCell id="xN_VHVvE-c8_-unxGixW-20" value="Chart" style="ellipse;whiteSpace=wrap;html=1;align=center;" vertex="1" parent="1">
          <mxGeometry x="376" y="790" width="100" height="40" as="geometry" />
        </mxCell>
      </root>
    </mxGraphModel>
  </diagram>
</mxfile>
